<?xml version="1.0" encoding="UTF-8" ?>
<svg version="1.1" width="22" height="22" xmlns="http://www.w3.org/2000/svg" shape-rendering="crispEdges">
<rect x="0" y="0" width="1" height="1" fill="#942F55" />
<rect x="1" y="0" width="1" height="1" fill="#942F55" />
<rect x="2" y="0" width="1" height="1" fill="#942F55" />
<rect x="3" y="0" width="1" height="1" fill="#942F55" />
<rect x="4" y="0" width="1" height="1" fill="#942F55" />
<rect x="17" y="0" width="1" height="1" fill="#942F55" />
<rect x="18" y="0" width="1" height="1" fill="#942F55" />
<rect x="19" y="0" width="1" height="1" fill="#942F55" />
<rect x="20" y="0" width="1" height="1" fill="#942F55" />
<rect x="21" y="0" width="1" height="1" fill="#942F55" />
<rect x="0" y="1" width="1" height="1" fill="#942F55" />
<rect x="1" y="1" width="1" height="1" fill="#ED0D0F" />
<rect x="2" y="1" width="1" height="1" fill="#ED0D0F" />
<rect x="3" y="1" width="1" height="1" fill="#ED0D0F" />
<rect x="4" y="1" width="1" height="1" fill="#ED0D0F" />
<rect x="17" y="1" width="1" height="1" fill="#ED0D0F" />
<rect x="18" y="1" width="1" height="1" fill="#ED0D0F" />
<rect x="19" y="1" width="1" height="1" fill="#ED0D0F" />
<rect x="20" y="1" width="1" height="1" fill="#ED0D0F" />
<rect x="21" y="1" width="1" height="1" fill="#942F55" />
<rect x="0" y="2" width="1" height="1" fill="#942F55" />
<rect x="1" y="2" width="1" height="1" fill="#ED0D0F" />
<rect x="20" y="2" width="1" height="1" fill="#ED0D0F" />
<rect x="21" y="2" width="1" height="1" fill="#942F55" />
<rect x="0" y="3" width="1" height="1" fill="#942F55" />
<rect x="1" y="3" width="1" height="1" fill="#ED0D0F" />
<rect x="20" y="3" width="1" height="1" fill="#ED0D0F" />
<rect x="21" y="3" width="1" height="1" fill="#942F55" />
<rect x="0" y="4" width="1" height="1" fill="#942F55" />
<rect x="1" y="4" width="1" height="1" fill="#ED0D0F" />
<rect x="20" y="4" width="1" height="1" fill="#ED0D0F" />
<rect x="21" y="4" width="1" height="1" fill="#942F55" />
<rect x="0" y="17" width="1" height="1" fill="#942F55" />
<rect x="1" y="17" width="1" height="1" fill="#ED0D0F" />
<rect x="20" y="17" width="1" height="1" fill="#ED0D0F" />
<rect x="21" y="17" width="1" height="1" fill="#942F55" />
<rect x="0" y="18" width="1" height="1" fill="#942F55" />
<rect x="1" y="18" width="1" height="1" fill="#ED0D0F" />
<rect x="20" y="18" width="1" height="1" fill="#ED0D0F" />
<rect x="21" y="18" width="1" height="1" fill="#942F55" />
<rect x="0" y="19" width="1" height="1" fill="#942F55" />
<rect x="1" y="19" width="1" height="1" fill="#ED0D0F" />
<rect x="20" y="19" width="1" height="1" fill="#ED0D0F" />
<rect x="21" y="19" width="1" height="1" fill="#942F55" />
<rect x="0" y="20" width="1" height="1" fill="#942F55" />
<rect x="1" y="20" width="1" height="1" fill="#ED0D0F" />
<rect x="2" y="20" width="1" height="1" fill="#ED0D0F" />
<rect x="3" y="20" width="1" height="1" fill="#ED0D0F" />
<rect x="4" y="20" width="1" height="1" fill="#ED0D0F" />
<rect x="17" y="20" width="1" height="1" fill="#ED0D0F" />
<rect x="18" y="20" width="1" height="1" fill="#ED0D0F" />
<rect x="19" y="20" width="1" height="1" fill="#ED0D0F" />
<rect x="20" y="20" width="1" height="1" fill="#ED0D0F" />
<rect x="21" y="20" width="1" height="1" fill="#942F55" />
<rect x="0" y="21" width="1" height="1" fill="#942F55" />
<rect x="1" y="21" width="1" height="1" fill="#942F55" />
<rect x="2" y="21" width="1" height="1" fill="#942F55" />
<rect x="3" y="21" width="1" height="1" fill="#942F55" />
<rect x="4" y="21" width="1" height="1" fill="#942F55" />
<rect x="17" y="21" width="1" height="1" fill="#942F55" />
<rect x="18" y="21" width="1" height="1" fill="#942F55" />
<rect x="19" y="21" width="1" height="1" fill="#942F55" />
<rect x="20" y="21" width="1" height="1" fill="#942F55" />
<rect x="21" y="21" width="1" height="1" fill="#942F55" />
</svg>