<?xml version="1.0" encoding="UTF-8" ?>
<svg version="1.1" width="58" height="35" xmlns="http://www.w3.org/2000/svg" shape-rendering="crispEdges">
<rect x="44" y="15" width="1" height="1" fill="#34355A" />
<rect x="45" y="15" width="1" height="1" fill="#34355A" />
<rect x="46" y="15" width="1" height="1" fill="#34355A" />
<rect x="43" y="16" width="1" height="1" fill="#34355A" />
<rect x="44" y="16" width="1" height="1" fill="#EFEF80" />
<rect x="45" y="16" width="1" height="1" fill="#EFEF80" />
<rect x="46" y="16" width="1" height="1" fill="#EFEF80" />
<rect x="47" y="16" width="1" height="1" fill="#34355A" />
<rect x="42" y="17" width="1" height="1" fill="#34355A" />
<rect x="43" y="17" width="1" height="1" fill="#EFEF80" />
<rect x="44" y="17" width="1" height="1" fill="#95DE40" />
<rect x="45" y="17" width="1" height="1" fill="#95DE40" />
<rect x="46" y="17" width="1" height="1" fill="#95DE40" />
<rect x="47" y="17" width="1" height="1" fill="#EFEF80" />
<rect x="48" y="17" width="1" height="1" fill="#34355A" />
<rect x="42" y="18" width="1" height="1" fill="#34355A" />
<rect x="43" y="18" width="1" height="1" fill="#EFEF80" />
<rect x="44" y="18" width="1" height="1" fill="#95DE40" />
<rect x="45" y="18" width="1" height="1" fill="#EFEF80" />
<rect x="46" y="18" width="1" height="1" fill="#95DE40" />
<rect x="47" y="18" width="1" height="1" fill="#EFEF80" />
<rect x="48" y="18" width="1" height="1" fill="#34355A" />
<rect x="42" y="19" width="1" height="1" fill="#34355A" />
<rect x="43" y="19" width="1" height="1" fill="#EFEF80" />
<rect x="44" y="19" width="1" height="1" fill="#95DE40" />
<rect x="45" y="19" width="1" height="1" fill="#95DE40" />
<rect x="46" y="19" width="1" height="1" fill="#95DE40" />
<rect x="47" y="19" width="1" height="1" fill="#EFEF80" />
<rect x="48" y="19" width="1" height="1" fill="#34355A" />
<rect x="43" y="20" width="1" height="1" fill="#34355A" />
<rect x="44" y="20" width="1" height="1" fill="#EFEF80" />
<rect x="45" y="20" width="1" height="1" fill="#EFEF80" />
<rect x="46" y="20" width="1" height="1" fill="#EFEF80" />
<rect x="47" y="20" width="1" height="1" fill="#34355A" />
<rect x="44" y="21" width="1" height="1" fill="#34355A" />
<rect x="45" y="21" width="1" height="1" fill="#34355A" />
<rect x="46" y="21" width="1" height="1" fill="#34355A" />
</svg>